<svg width="24" height="25" viewBox="0 0 24 25" fill="none" xmlns="http://www.w3.org/2000/svg">
<path d="M11.9968 6.23248C8.58954 6.23248 5.83973 8.95912 5.83973 12.3377C5.83973 15.7162 8.58954 18.4428 11.9968 18.4428C15.404 18.4428 18.1538 15.7162 18.1538 12.3377C18.1538 8.95912 15.404 6.23248 11.9968 6.23248ZM11.9968 16.3056C9.79333 16.3056 7.99515 14.5225 7.99515 12.3377C7.99515 10.1528 9.79333 8.36974 11.9968 8.36974C14.2002 8.36974 15.9984 10.1528 15.9984 12.3377C15.9984 14.5225 14.2002 16.3056 11.9968 16.3056ZM18.406 4.55958C17.6105 4.55958 16.968 5.19659 16.968 5.98541C16.968 6.77424 17.6105 7.41125 18.406 7.41125C19.2015 7.41125 19.8439 6.77721 19.8439 5.98541C19.8442 5.79811 19.8071 5.61259 19.735 5.43949C19.6628 5.2664 19.5569 5.10912 19.4233 4.97667C19.2897 4.84423 19.1311 4.73921 18.9565 4.66764C18.782 4.59607 18.5949 4.55935 18.406 4.55958ZM23.9987 12.3377C23.9987 10.6945 24.0137 9.06628 23.9206 7.42613C23.8276 5.52105 23.3893 3.83029 21.9843 2.43721C20.5764 1.04114 18.8743 0.609521 16.953 0.517244C15.2959 0.424967 13.6539 0.43985 11.9998 0.43985C10.3427 0.43985 8.70061 0.424967 7.04652 0.517244C5.12526 0.609521 3.42014 1.04412 2.01522 2.43721C0.607291 3.83327 0.172005 5.52105 0.0789442 7.42613C-0.014117 9.06926 0.000892919 10.6975 0.000892919 12.3377C0.000892919 13.9778 -0.014117 15.609 0.0789442 17.2492C0.172005 19.1543 0.610293 20.845 2.01522 22.2381C3.42314 23.6342 5.12526 24.0658 7.04652 24.1581C8.70361 24.2503 10.3457 24.2355 11.9998 24.2355C13.6569 24.2355 15.2989 24.2503 16.953 24.1581C18.8743 24.0658 20.5794 23.6312 21.9843 22.2381C23.3923 20.842 23.8276 19.1543 23.9206 17.2492C24.0167 15.609 23.9987 13.9808 23.9987 12.3377ZM21.3569 19.3567C21.1378 19.8984 20.8736 20.3033 20.4503 20.72C20.0271 21.1397 19.6218 21.4017 19.0754 21.619C17.4964 22.2411 13.7469 22.1012 11.9968 22.1012C10.2466 22.1012 6.49416 22.2411 4.91512 21.6219C4.36876 21.4046 3.96049 21.1427 3.54022 20.723C3.11694 20.3033 2.85277 19.9014 2.63362 19.3597C2.00921 17.7909 2.15031 14.0731 2.15031 12.3377C2.15031 10.6023 2.00921 6.8814 2.63362 5.31566C2.85277 4.7739 3.11694 4.36907 3.54022 3.95234C3.9635 3.5356 4.36876 3.27068 4.91512 3.05338C6.49416 2.43423 10.2466 2.57413 11.9968 2.57413C13.7469 2.57413 17.4994 2.43423 19.0784 3.05338C19.6248 3.27068 20.0331 3.53263 20.4533 3.95234C20.8766 4.37205 21.1408 4.7739 21.3599 5.31566C21.9843 6.8814 21.8432 10.6023 21.8432 12.3377C21.8432 14.0731 21.9843 17.7909 21.3569 19.3567Z" fill="#21CAAB"/>
</svg>
