<svg width="24" height="31" viewBox="0 0 24 31" fill="none" xmlns="http://www.w3.org/2000/svg">
<path d="M12 15.1953C10.35 15.1953 9 13.8395 9 12.1823C9 10.5251 10.35 9.16928 12 9.16928C13.65 9.16928 15 10.5251 15 12.1823C15 13.8395 13.65 15.1953 12 15.1953ZM21 12.4836C21 7.01497 17.025 3.14324 12 3.14324C6.975 3.14324 3 7.01497 3 12.4836C3 16.0088 5.925 20.679 12 26.2531C18.075 20.679 21 16.0088 21 12.4836ZM12 0.130219C18.3 0.130219 24 4.98118 24 12.4836C24 17.4852 19.995 23.4058 12 30.2604C4.005 23.4058 0 17.4852 0 12.4836C0 4.98118 5.7 0.130219 12 0.130219Z" fill="#21CAAB"/>
</svg>
