<svg width="142" height="65" viewBox="0 0 142 65" fill="none" xmlns="http://www.w3.org/2000/svg">
<path d="M7.92 26.456V21.992H16.92V16.52H7.92V12.344H17.82V6.8H2.16V32H18V26.456H7.92ZM33.0981 32.504C37.7061 32.504 41.7381 30.236 43.8981 26.672L38.9301 23.792C37.8501 25.736 35.6541 26.888 33.0981 26.888C28.6341 26.888 25.7541 23.9 25.7541 19.4C25.7541 14.9 28.6341 11.912 33.0981 11.912C35.6541 11.912 37.8141 13.064 38.9301 15.008L43.8981 12.128C41.7021 8.564 37.6701 6.296 33.0981 6.296C25.5021 6.296 19.9941 11.984 19.9941 19.4C19.9941 26.816 25.5021 32.504 33.0981 32.504ZM10.98 62.504C16.452 62.504 20.34 59.624 20.34 54.764C20.34 49.436 16.056 48.104 12.24 46.952C8.316 45.764 7.704 44.972 7.704 43.82C7.704 42.812 8.604 41.912 10.404 41.912C12.708 41.912 13.896 43.028 14.76 44.828L19.62 41.984C17.784 38.276 14.544 36.296 10.404 36.296C6.048 36.296 1.944 39.104 1.944 43.964C1.944 48.788 5.616 50.588 9.36 51.632C13.14 52.676 14.58 53.288 14.58 54.836C14.58 55.808 13.896 56.888 11.16 56.888C8.316 56.888 6.768 55.484 5.868 53.396L0.9 56.276C2.304 59.984 5.688 62.504 10.98 62.504ZM28.8028 56.456V51.992H37.8028V46.52H28.8028V42.344H38.7028V36.8H23.0428V62H38.8828V56.456H28.8028ZM55.3807 62H61.5727L56.2087 52.748C58.9807 51.344 60.8527 48.536 60.8527 45.44C60.8527 40.652 57.0007 36.8 52.2127 36.8H42.1327V62H47.8927V53.72H50.6287L55.3807 62ZM47.8927 42.2H52.2127C53.7967 42.2 55.0927 43.604 55.0927 45.44C55.0927 47.276 53.7967 48.68 52.2127 48.68H47.8927V42.2ZM69.9775 62H77.3215L85.5295 36.8H79.2295L73.6495 55.34L68.0695 36.8H61.7695L69.9775 62ZM87.6952 36.8V62H93.4552V36.8H87.6952ZM109.809 62.504C114.417 62.504 118.449 60.236 120.609 56.672L115.641 53.792C114.561 55.736 112.365 56.888 109.809 56.888C105.345 56.888 102.465 53.9 102.465 49.4C102.465 44.9 105.345 41.912 109.809 41.912C112.365 41.912 114.525 43.064 115.641 45.008L120.609 42.128C118.413 38.564 114.381 36.296 109.809 36.296C102.213 36.296 96.705 41.984 96.705 49.4C96.705 56.816 102.213 62.504 109.809 62.504ZM129.068 56.456V51.992H138.068V46.52H129.068V42.344H138.968V36.8H123.308V62H139.148V56.456H129.068Z" fill="black" fill-opacity="0.5"/>
<path d="M74.3015 14.6154C73.1115 12.5388 66.3615 0.555972 66.3615 0.555972C66.2751 0.400671 66.1483 0.271221 65.9944 0.181079C65.8405 0.0909379 65.6652 0.043396 65.4865 0.043396C65.3079 0.043396 65.1325 0.0909379 64.9787 0.181079C64.8248 0.271221 64.698 0.400671 64.6115 0.555972L58.6115 11.1279L55.6115 5.88167C55.525 5.72637 55.3983 5.59692 55.2444 5.50678C55.0905 5.41664 54.9152 5.3691 54.7365 5.3691C54.5579 5.3691 54.3825 5.41664 54.2287 5.50678C54.0748 5.59692 53.948 5.72637 53.8615 5.88167C53.8615 5.88167 48.4015 15.7183 47.4215 17.4273C46.4622 18.9469 45.9688 20.7111 46.0015 22.5046C46.0015 27.5819 49.8815 32.0929 54.6715 32.1823H65.4815C71.2815 32.1823 76.0015 26.8367 76.0015 20.6963C76.0414 18.5483 75.4506 16.4353 74.3015 14.6154ZM64.4815 30.1951H57.5415C56.3402 30.1596 55.1986 29.6662 54.3534 28.8171C53.5082 27.9681 53.0241 26.8285 53.0015 25.6345C52.9936 24.7995 53.2566 23.9842 53.7515 23.3094L57.1015 18.1328C57.1469 18.063 57.209 18.0057 57.2824 17.966C57.3558 17.9263 57.438 17.9055 57.5215 17.9055C57.6051 17.9055 57.6873 17.9263 57.7606 17.966C57.834 18.0057 57.8962 18.063 57.9415 18.1328L59.7215 20.885V20.8056C60.3515 19.7027 63.9515 13.3734 63.9515 13.3734C63.9951 13.297 64.0584 13.2334 64.1348 13.1891C64.2112 13.1449 64.2981 13.1216 64.3865 13.1216C64.475 13.1216 64.5618 13.1449 64.6383 13.1891C64.7147 13.2334 64.7779 13.297 64.8215 13.3734C64.8215 13.3734 68.4215 19.7126 69.0515 20.8056C69.6752 21.7536 70.0055 22.8624 70.0015 23.995C70.0015 30.1951 65.1015 30.1951 64.4815 30.1951Z" fill="#21CAAB"/>
</svg>
