<svg width="15" height="31" viewBox="0 0 15 31" fill="none" xmlns="http://www.w3.org/2000/svg">
<path d="M12.8338 0.130219H2.16616C0.970458 0.130219 0 1.10281 0 2.30586V28.0848C0 29.2857 0.968353 30.2604 2.16616 30.2604H12.8338C14.0295 30.2604 15 29.2878 15 28.0858V2.30586C15 1.72884 14.7718 1.17546 14.3655 0.767449C13.9593 0.359437 13.4083 0.130219 12.8338 0.130219ZM6.4185 2.52364H8.58255C8.68781 2.52364 8.77517 2.60821 8.77517 2.71392C8.77517 2.81964 8.68781 2.90421 8.5815 2.90421H6.4185C6.31324 2.90421 6.22693 2.81964 6.22693 2.71392C6.22693 2.60821 6.31114 2.52364 6.41639 2.52364H6.4185ZM4.90808 2.30586C5.00857 2.30586 5.10495 2.34596 5.17601 2.41733C5.24707 2.4887 5.287 2.5855 5.287 2.68644C5.287 2.78737 5.24707 2.88418 5.17601 2.95555C5.10495 3.02692 5.00857 3.06702 4.90808 3.06702C4.80758 3.06702 4.7112 3.02692 4.64014 2.95555C4.56908 2.88418 4.52916 2.78737 4.52916 2.68644C4.52916 2.5855 4.56908 2.4887 4.64014 2.41733C4.7112 2.34596 4.80758 2.30586 4.90808 2.30586ZM7.50053 29.1737C7.30148 29.1737 7.10439 29.1343 6.9205 29.0578C6.73661 28.9813 6.56952 28.8691 6.42878 28.7278C6.28803 28.5864 6.17639 28.4186 6.10022 28.2339C6.02405 28.0492 5.98484 27.8513 5.98484 27.6513C5.98484 27.4514 6.02405 27.2535 6.10022 27.0688C6.17639 26.8841 6.28803 26.7163 6.42878 26.5749C6.56952 26.4335 6.73661 26.3214 6.9205 26.2449C7.10439 26.1684 7.30148 26.129 7.50053 26.129C7.90251 26.129 8.28803 26.2894 8.57228 26.5749C8.85652 26.8604 9.01621 27.2476 9.01621 27.6513C9.01621 28.0551 8.85652 28.4423 8.57228 28.7278C8.28803 29.0133 7.90251 29.1737 7.50053 29.1737ZM14.1874 24.8203C14.1874 24.9068 14.1533 24.9899 14.0926 25.0513C14.0319 25.1126 13.9494 25.1474 13.8632 25.148H1.13676C1.05059 25.1474 0.968135 25.1126 0.907398 25.0513C0.84666 24.9899 0.812572 24.9068 0.812574 24.8203V5.46043C0.812574 5.28072 0.957827 5.13271 1.13676 5.13271H13.8622C14.0411 5.13271 14.1885 5.28072 14.1885 5.46043V24.8203H14.1874Z" fill="#21CAAB"/>
</svg>
