<svg width="100" height="100" viewBox="0 0 100 100" fill="none" xmlns="http://www.w3.org/2000/svg">
<path d="M58.5937 22.6563H40.625V50.1875H58.7187C62.5509 50.3579 66.2956 49.0094 69.1393 46.4349C71.983 43.8603 73.696 40.2678 73.9062 36.4375C73.8103 34.5256 73.3376 32.6515 72.5152 30.9229C71.6929 29.1943 70.537 27.6451 69.1141 26.3645C67.6913 25.0839 66.0294 24.0971 64.2239 23.4607C62.4185 22.8243 60.5051 22.551 58.5937 22.6563Z" fill="#8BC34A"/>
<path d="M50 0C40.111 0 30.444 2.93245 22.2215 8.42652C13.999 13.9206 7.59043 21.7295 3.80604 30.8658C0.021664 40.0021 -0.968502 50.0555 0.960758 59.7545C2.89002 69.4536 7.65206 78.3627 14.6447 85.3553C21.6373 92.3479 30.5465 97.11 40.2455 99.0392C49.9445 100.969 59.9979 99.9783 69.1342 96.194C78.2705 92.4096 86.0794 86.001 91.5735 77.7785C97.0676 69.556 100 59.8891 100 50C100 36.7392 94.7322 24.0215 85.3553 14.6447C75.9785 5.26784 63.2608 0 50 0ZM58.5938 58H40.625V62.5H66.5313C67.3601 62.5 68.1549 62.8292 68.741 63.4153C69.327 64.0013 69.6563 64.7962 69.6563 65.625C69.6563 66.4538 69.327 67.2486 68.741 67.8347C68.1549 68.4207 67.3601 68.75 66.5313 68.75H40.625V84.375C40.625 85.411 40.2135 86.4046 39.4809 87.1371C38.7483 87.8697 37.7548 88.2812 36.7188 88.2812C35.6828 88.2812 34.6892 87.8697 33.9566 87.1371C33.2241 86.4046 32.8125 85.411 32.8125 84.375V68.75H28.9063C28.0775 68.75 27.2826 68.4207 26.6966 67.8347C26.1105 67.2486 25.7813 66.4538 25.7813 65.625C25.7813 64.7962 26.1105 64.0013 26.6966 63.4153C27.2826 62.8292 28.0775 62.5 28.9063 62.5H32.6875V58H28.9063C27.8703 58 26.8767 57.5884 26.1441 56.8559C25.4116 56.1233 25 55.1297 25 54.0937C25 53.0577 25.4116 52.0642 26.1441 51.3316C26.8767 50.599 27.8703 50.1875 28.9063 50.1875H32.6875V18.75C32.6875 17.714 33.0991 16.7204 33.8316 15.9879C34.5642 15.2553 35.5578 14.8437 36.5938 14.8437H58.4688C64.3767 14.6584 70.1168 16.8248 74.4289 20.8675C78.7411 24.9101 81.273 30.4987 81.4688 36.4062C81.2728 42.2943 78.7592 47.8667 74.4752 51.9107C70.1912 55.9548 64.4833 58.1433 58.5938 58Z" fill="#8BC34A"/>
</svg>
