<svg width="100" height="100" viewBox="0 0 100 100" fill="none" xmlns="http://www.w3.org/2000/svg">
<path d="M50 0L61.1905 8.57143L75 6.66667L80.2381 19.7619L93.3333 25L91.4286 38.8095L100 50L91.4286 61.1905L93.3333 75L80.2381 80.2381L75 93.3333L61.1905 91.4286L50 100L38.8095 91.4286L25 93.3333L19.7619 80.2381L6.66667 75L8.57143 61.1905L0 50L8.57143 38.8095L6.66667 25L19.7619 19.7619L25 6.66667L38.8095 8.57143L50 0Z" fill="#8BC34A"/>
<path d="M75.2383 27.6191L42.8573 60.0001L29.524 46.6667L22.8573 53.3334L42.8573 73.3334L81.905 34.2858L75.2383 27.6191Z" fill="#CCFF90"/>
</svg>
