<svg width="100" height="100" viewBox="0 0 100 100" fill="none" xmlns="http://www.w3.org/2000/svg">
<path d="M90.4473 18.5071L81.8616 9.92139L90.4473 5.62854L94.7402 9.92139L90.4473 18.5071Z" fill="#C0C0C0"/>
<path d="M90.8939 32.2466L90.8939 20.1L100.001 23.1358L100.001 29.2073L90.8939 32.2466Z" fill="#C0C0C0"/>
<path d="M81.4937 42.2716L90.0794 33.6858L94.3723 42.2716L90.0794 46.5681L81.4937 42.2716Z" fill="#C0C0C0"/>
<path d="M67.7548 42.7176L79.9012 42.7176L76.8655 51.825L70.7941 51.825L67.7548 42.7176Z" fill="#C0C0C0"/>
<path d="M57.7293 33.3179L66.3151 41.9036L57.7293 46.1965L53.4329 41.9036L57.7293 33.3179Z" fill="#C0C0C0"/>
<path d="M57.2826 19.5824L57.2826 31.7253L48.1754 28.6896L48.1754 22.6181L57.2826 19.5824Z" fill="#C0C0C0"/>
<path d="M66.6832 9.55396L58.0975 18.1396L53.8046 9.55396L58.0975 5.26111L66.6832 9.55396Z" fill="#C0C0C0"/>
<path d="M80.4188 9.10718L68.276 9.10718L71.3117 -1.15774e-05L77.3831 -1.18439e-05L80.4188 9.10718Z" fill="#C0C0C0"/>
<path d="M74.0863 7.91793C78.25 7.91692 82.2853 9.35971 85.5045 12.0005C88.7237 14.6412 90.9276 18.3165 91.7407 22.4001C92.5537 26.4837 91.9257 30.7229 89.9635 34.3953C88.0013 38.0677 84.8265 40.9461 80.9799 42.54C77.1333 44.134 72.853 44.3448 68.8684 43.1365C64.8838 41.9283 61.4415 39.3758 59.1279 35.914C56.8144 32.4521 55.7728 28.2952 56.1807 24.1515C56.5886 20.0078 58.4207 16.1337 61.3648 13.1894C63.0335 11.5161 65.0164 10.189 67.1996 9.2844C69.3827 8.37977 71.7231 7.91539 74.0863 7.91793ZM67.3005 25.9144C67.3005 27.4842 67.8448 29.0055 68.8406 30.219C69.8364 31.4325 71.2222 32.2632 72.7618 32.5696C74.3014 32.876 75.8996 32.6392 77.2842 31.8994C78.6688 31.1596 79.754 29.9626 80.355 28.5124C80.956 27.0622 81.0356 25.4485 80.5803 23.9462C80.1249 22.4438 79.1628 21.1459 77.8578 20.2734C76.5528 19.4008 74.9857 19.0078 73.4234 19.1611C71.8611 19.3145 70.4003 20.0048 69.2898 21.1144C68.6582 21.7439 68.1573 22.492 67.8159 23.3158C67.4745 24.1395 67.2994 25.0227 67.3005 25.9144Z" fill="#C0C0C0"/>
<path d="M57.4324 26.2034C57.4894 29.4974 58.522 32.7006 60.3995 35.4078C62.2771 38.115 64.9153 40.2047 67.9805 41.4125C71.0457 42.6203 74.4002 42.8921 77.6198 42.1933C80.8395 41.4946 83.7796 39.8569 86.0684 37.4871C88.3572 35.1174 89.8919 32.1222 90.4783 28.8803C91.0648 25.6383 90.6767 22.2953 89.3632 19.2739C88.0496 16.2525 85.8696 13.6885 83.0988 11.9061C80.328 10.1238 77.0909 9.20307 73.7968 9.2605C69.3801 9.33751 65.1748 11.1657 62.1059 14.3431C59.0371 17.5204 57.356 21.7866 57.4324 26.2034ZM88.1826 25.6676C88.2316 28.4553 87.4528 31.195 85.9448 33.5401C84.4367 35.8852 82.2671 37.7304 79.7103 38.8423C77.1535 39.9543 74.3243 40.2831 71.5807 39.7871C68.837 39.2911 66.302 37.9927 64.2963 36.0559C62.2906 34.1192 60.9043 31.6312 60.3127 28.9065C59.7211 26.1819 59.9508 23.343 60.9727 20.7489C61.9946 18.1548 63.7629 15.922 66.0538 14.3329C68.3448 12.7437 71.0555 11.8697 73.8432 11.8212C77.5808 11.7562 81.1911 13.1785 83.8802 15.7751C86.5693 18.3717 88.1168 21.9301 88.1826 25.6676Z" fill="#A9A9A9"/>
<path d="M61.1324 26.1393C61.1766 28.7017 61.9797 31.1935 63.4401 33.2995C64.9005 35.4055 66.9527 37.0311 69.337 37.9707C71.7214 38.9104 74.3309 39.1218 76.8354 38.5783C79.3399 38.0349 81.627 36.7609 83.4075 34.9175C85.1879 33.0741 86.3817 30.7441 86.8379 28.2222C87.2941 25.7003 86.9921 23.0998 85.9702 20.7495C84.9484 18.3992 83.2525 16.4047 81.097 15.0183C78.9416 13.6319 76.4234 12.9159 73.861 12.9607C70.4256 13.0208 67.1548 14.4429 64.7678 16.9143C62.3808 19.3856 61.0732 22.7039 61.1324 26.1393ZM81.4896 25.7821C81.5148 27.246 81.1054 28.6844 80.3132 29.9156C79.521 31.1468 78.3816 32.1155 77.0389 32.6992C75.6963 33.2829 74.2107 33.4555 72.77 33.195C71.3293 32.9346 69.9982 32.2528 68.9449 31.236C67.8916 30.2191 67.1635 28.9128 66.8525 27.4822C66.5415 26.0515 66.6616 24.5608 67.1977 23.1985C67.7338 21.8361 68.6618 20.6633 69.8644 19.8283C71.0669 18.9932 72.4901 18.5335 73.9539 18.5071C74.9264 18.4896 75.8929 18.6639 76.7981 19.0201C77.7033 19.3763 78.5294 19.9074 79.2293 20.5831C79.9291 21.2587 80.4889 22.0656 80.8768 22.9577C81.2646 23.8498 81.4728 24.8095 81.4896 25.7821Z" fill="url(#paint0_radial_63_1980)"/>
<path d="M66.6858 26.0466C66.7122 27.5107 67.1721 28.9341 68.0075 30.1368C68.8428 31.3395 70.0161 32.2675 71.3789 32.8034C72.7416 33.3392 74.2327 33.4589 75.6635 33.1473C77.0943 32.8358 78.4006 32.1069 79.4171 31.0528C80.4336 29.9988 81.1148 28.667 81.3744 27.2259C81.634 25.7847 81.4605 24.2989 80.8756 22.9564C80.2908 21.6139 79.321 20.475 78.0889 19.6837C76.8568 18.8924 75.4177 18.4842 73.9536 18.5108C71.9906 18.5465 70.1221 19.3604 68.7592 20.7736C67.3962 22.1868 66.6504 24.0836 66.6858 26.0466ZM80.35 25.8073C80.3718 27.0462 80.0256 28.2636 79.3554 29.3058C78.6851 30.3479 77.7209 31.1678 76.5846 31.6619C75.4484 32.156 74.1911 32.302 72.9719 32.0814C71.7526 31.8609 70.6261 31.2838 69.7349 30.423C68.8437 29.5623 68.2277 28.4565 67.9649 27.2457C67.7022 26.0348 67.8044 24.7732 68.2586 23.6205C68.7129 22.4677 69.4988 21.4755 70.5169 20.7694C71.5351 20.0634 72.7398 19.6751 73.9786 19.6537C75.6389 19.625 77.2426 20.2567 78.4373 21.4099C79.632 22.5631 80.32 24.1435 80.35 25.8038L80.35 25.8073Z" fill="#A9A9A9"/>
<path d="M53.5115 83.6789L58.0186 75.5539L63.6187 80.7825L60.9151 85.6575L53.5115 83.6789Z" fill="#C0C0C0"/>
<path d="M42.2898 91.468L50.254 86.6822L52.4897 94.0109L47.7112 96.8823L42.2898 91.468Z" fill="#C0C0C0"/>
<path d="M28.679 92.5998L37.9683 92.4391L36.2397 99.9036L30.6647 100L28.679 92.5998Z" fill="#C0C0C0"/>
<path d="M16.3221 86.7751L24.447 91.2823L19.2185 96.8823L14.3435 94.1787L16.3221 86.7751Z" fill="#C0C0C0"/>
<path d="M8.53249 75.5534L13.3182 83.5177L5.98961 85.7534L3.11816 80.9749L8.53249 75.5534Z" fill="#C0C0C0"/>
<path d="M7.40007 61.9394L7.56079 71.2324L0.0964293 69.5038L-3.17866e-07 63.9287L7.40007 61.9394Z" fill="#C0C0C0"/>
<path d="M13.2253 49.5859L8.71818 57.7109L3.11816 52.4824L5.82174 47.6073L13.2253 49.5859Z" fill="#C0C0C0"/>
<path d="M24.4468 41.7966L16.4824 46.5823L14.2467 39.2537L19.0253 36.3823L24.4468 41.7966Z" fill="#C0C0C0"/>
<path d="M38.0615 40.6642L28.7687 40.825L30.4972 33.3607L36.0722 33.2643L38.0615 40.6642Z" fill="#C0C0C0"/>
<path d="M50.4146 46.4895L42.2897 41.9823L47.5182 36.3823L52.3932 39.0859L50.4146 46.4895Z" fill="#C0C0C0"/>
<path d="M58.2042 57.7112L53.4185 49.7469L60.7471 47.5112L63.6185 52.2898L58.2042 57.7112Z" fill="#C0C0C0"/>
<path d="M59.3363 71.3215L59.1755 62.0323L66.6398 63.7608L66.7362 69.3358L59.3363 71.3215Z" fill="#C0C0C0"/>
<path d="M60.1365 66.1645C60.2466 72.3611 58.2045 78.4041 54.3582 83.2638C50.5119 88.1234 45.0995 91.4989 39.0432 92.815C32.987 94.1312 26.6618 93.3065 21.1455 90.4815C15.6292 87.6566 11.2632 83.0062 8.79149 77.3228C6.3198 71.6394 5.89539 65.2748 7.59059 59.3136C9.2858 53.3524 12.9957 48.1634 18.0881 44.6311C23.1805 41.0987 29.3402 39.4415 35.5175 39.9419C41.6949 40.4423 47.5076 43.0693 51.9651 47.3752C54.4977 49.8144 56.5233 52.73 57.9257 55.9545C59.328 59.1789 60.0793 62.6487 60.1365 66.1645ZM33.1936 56.5859C30.8681 56.6236 28.6277 57.4667 26.8543 58.9715C25.081 60.4762 23.8844 62.5494 23.4685 64.8377C23.0527 67.1259 23.4433 69.4876 24.5739 71.5201C25.7045 73.5525 27.505 75.13 29.6685 75.9834C31.832 76.8369 34.2245 76.9137 36.4382 76.2005C38.6519 75.4874 40.5498 74.0285 41.8083 72.0727C43.0667 70.1168 43.6079 67.7851 43.3395 65.4748C43.0711 63.1646 42.0098 61.019 40.3364 59.4038C39.3902 58.4866 38.2721 57.7655 37.0462 57.2819C35.8204 56.7983 34.5111 56.5618 33.1936 56.5859Z" fill="#C0C0C0"/>
<path d="M9.31082 67.0539C9.39418 71.8118 10.8865 76.4381 13.5991 80.3478C16.3116 84.2576 20.1226 87.2752 24.5502 89.0191C28.9777 90.7631 33.823 91.1549 38.4732 90.1452C43.1235 89.1355 47.3699 86.7696 50.6756 83.3466C53.9812 79.9236 56.1976 75.5972 57.0446 70.9146C57.8915 66.232 57.3309 61.4034 55.4336 57.0394C53.5363 52.6754 50.3876 48.9719 46.3856 46.3973C42.3836 43.8228 37.7081 42.4927 32.9502 42.5753C29.7906 42.6302 26.6728 43.3069 23.7748 44.5668C20.8768 45.8267 18.2554 47.6451 16.0602 49.9182C13.8651 52.1913 12.1392 54.8746 10.9811 57.8147C9.82303 60.7549 9.25546 63.8944 9.31082 67.0539ZM53.7252 66.2789C53.7952 70.3043 52.6701 74.26 50.492 77.646C48.314 81.0319 45.1808 83.6961 41.4887 85.3015C37.7967 86.9069 33.7115 87.3815 29.7497 86.6653C25.7879 85.9491 22.1274 84.0742 19.2311 81.2778C16.3348 78.4814 14.3327 74.8889 13.478 70.9547C12.6232 67.0205 12.9543 62.9212 14.4292 59.1751C15.9041 55.429 18.4567 52.2043 21.7642 49.9089C25.0716 47.6134 28.9855 46.3502 33.0109 46.2789C35.684 46.2316 38.3403 46.7113 40.8281 47.6906C43.3158 48.67 45.5863 50.1298 47.5099 51.9866C49.4334 53.8435 50.9723 56.0611 52.0388 58.5128C53.1052 60.9644 53.6783 63.6022 53.7252 66.2753L53.7252 66.2789Z" fill="#A9A9A9"/>
<path d="M14.7969 66.9573C14.861 70.6297 16.0127 74.2007 18.1063 77.2186C20.1999 80.2366 23.1413 82.5659 26.5587 83.9122C29.9761 85.2584 33.716 85.5611 37.3054 84.7819C40.8948 84.0027 44.1726 82.1766 46.7242 79.5346C49.2758 76.8926 50.9867 73.5532 51.6405 69.9389C52.2943 66.3245 51.8617 62.5975 50.3974 59.229C48.933 55.8605 46.5027 53.0019 43.4137 51.0146C40.3248 49.0273 36.7159 48.0006 33.0434 48.0643C30.6048 48.1066 28.1983 48.6289 25.9615 49.6013C23.7247 50.5737 21.7014 51.9771 20.007 53.7315C18.3126 55.4859 16.9804 57.5569 16.0865 59.8262C15.1925 62.0955 14.7543 64.5186 14.7969 66.9573ZM43.4971 66.4573C43.5321 68.4609 42.9721 70.43 41.8881 72.1155C40.804 73.8009 39.2444 75.127 37.4067 75.9261C35.5689 76.7252 33.5355 76.9614 31.5635 76.6048C29.5915 76.2482 27.7695 75.3149 26.328 73.9228C24.8864 72.5307 23.8901 70.7424 23.4649 68.784C23.0397 66.8257 23.2048 64.7852 23.9393 62.9207C24.6738 61.0562 25.9447 59.4513 27.5913 58.3091C29.2379 57.1669 31.1862 56.5386 33.1899 56.5037C35.876 56.4568 38.4707 57.4787 40.4036 59.3446C42.3365 61.2105 43.4492 63.7676 43.4971 66.4537L43.4971 66.4573Z" fill="url(#paint1_radial_63_1980)"/>
<path d="M22.2646 66.8251C22.3031 69.0207 22.9917 71.1556 24.2435 72.9598C25.4952 74.7641 27.2538 76.1566 29.297 76.9615C31.3401 77.7663 33.576 77.9472 35.722 77.4814C37.868 77.0156 39.8276 75.9239 41.3532 74.3444C42.8788 72.765 43.9017 70.7686 44.2928 68.6078C44.6838 66.4469 44.4253 64.2187 43.55 62.2047C42.6747 60.1908 41.2219 58.4816 39.3752 57.2933C37.5286 56.105 35.371 55.4909 33.1754 55.5287C31.7172 55.5538 30.2782 55.866 28.9407 56.4473C27.6031 57.0286 26.3932 57.8677 25.3799 58.9168C24.3667 59.9658 23.5701 61.2041 23.0356 62.561C22.5011 63.918 22.2391 65.3669 22.2646 66.8251ZM42.7648 66.468C42.797 68.326 42.2775 70.1518 41.2721 71.7147C40.2666 73.2775 38.8203 74.5071 37.1161 75.248C35.4119 75.9889 33.5262 76.2079 31.6976 75.8772C29.8689 75.5465 28.1793 74.681 26.8425 73.3902C25.5057 72.0993 24.5817 70.4411 24.1873 68.6251C23.7929 66.8091 23.9458 64.917 24.6267 63.1879C25.3076 61.4588 26.4859 59.9705 28.0126 58.911C29.5394 57.8516 31.346 57.2686 33.204 57.2359C34.438 57.2141 35.6642 57.4356 36.8126 57.8879C37.961 58.3401 39.009 59.0141 39.8968 59.8714C40.7847 60.7287 41.4949 61.7525 41.987 62.8844C42.4791 64.0162 42.7434 65.234 42.7648 66.468Z" fill="#A9A9A9"/>
<defs>
<radialGradient id="paint0_radial_63_1980" cx="0" cy="0" r="1" gradientUnits="userSpaceOnUse" gradientTransform="translate(74.0877 25.918) rotate(-171.5) scale(12.9571 13.8771)">
<stop stop-color="#BEDCDC"/>
<stop offset="0.5" stop-color="#8E9E9E" stop-opacity="0.74"/>
<stop offset="1" stop-color="#404F5C" stop-opacity="0.84"/>
</radialGradient>
<radialGradient id="paint1_radial_63_1980" cx="0" cy="0" r="1" gradientUnits="userSpaceOnUse" gradientTransform="translate(-300.979 -419.181) rotate(-171.5) scale(193.181 206.897)">
<stop stop-color="#BEDCDC"/>
<stop offset="0.5" stop-color="#8E9E9E" stop-opacity="0.74"/>
<stop offset="1" stop-color="#404F5C" stop-opacity="0.84"/>
</radialGradient>
</defs>
</svg>
